<svg width="864" height="1024" viewBox="0 0 864 1024" fill="none" xmlns="http://www.w3.org/2000/svg">
<rect x="284.763" y="-93.7598" width="784.339" height="1291.88" transform="rotate(8.21213 284.763 -93.7598)" fill="#5566FF"/>
<rect x="580.627" y="-210" width="400" height="400" rx="30" transform="rotate(6.83822 580.627 -210)" fill="#5F6FFF"/>
<path d="M91.4082 -61.1477L735.735 -178.321L767.686 -2.623L182.391 103.815C149.789 109.744 118.553 88.1209 112.624 55.5185L91.4082 -61.1477Z" fill="#3B47B0"/>
<path d="M718.304 394.03C711.61 392.028 365.49 491.646 193.267 541.705L153 791L718.304 414.054C721.093 408.214 724.998 396.032 718.304 394.03Z" fill="#6675FF"/>
<rect x="0.0966797" y="900.895" width="892.903" height="509.337" rx="30" transform="rotate(-35.5525 0.0966797 900.895)" fill="#5599FF"/>
<rect x="306.693" y="1114.4" width="615.43" height="535.73" rx="30" transform="rotate(-53.2714 306.693 1114.4)" fill="#5191F2"/>
</svg>
